<svg width="41" height="28" viewBox="0 0 41 28" fill="none" xmlns="http://www.w3.org/2000/svg">
<path d="M39.2926 4.95145C39.0675 4.14784 38.6289 3.4203 38.0235 2.84616C37.401 2.25436 36.638 1.83104 35.8066 1.61614C32.695 0.795574 20.2288 0.795574 20.2288 0.795574C15.0318 0.736415 9.83608 0.996612 4.67095 1.5747C3.83952 1.80547 3.07798 2.23826 2.45407 2.83455C1.84103 3.4247 1.397 4.15243 1.16504 4.94979C0.607825 7.95313 0.337093 11.0027 0.356491 14.0572C0.336609 17.1091 0.606677 20.1576 1.16504 23.1647C1.39203 23.9587 1.83441 24.6831 2.4491 25.2683C3.06379 25.8535 3.82926 26.2762 4.67095 26.5C7.82394 27.3189 20.2288 27.3189 20.2288 27.3189C25.4325 27.3781 30.6348 27.1179 35.8066 26.5398C36.638 26.3249 37.401 25.9016 38.0235 25.3098C38.6287 24.7357 39.0667 24.0081 39.291 23.2045C39.8627 20.2023 40.1407 17.1515 40.121 14.0954C40.164 11.0263 39.8864 7.96112 39.2926 4.94979V4.95145ZM16.2656 19.7332V8.3829L26.6375 14.0589L16.2656 19.7332Z" fill="#101010"/>
</svg>
