<svg width="25" height="36" viewBox="0 0 25 36" fill="none" xmlns="http://www.w3.org/2000/svg">
<path d="M14.9598 36H7.57903C7.08965 36 6.62032 35.8104 6.27428 35.4729C5.92823 35.1354 5.73383 34.6777 5.73383 34.2004V23.0431H2.04344C1.55406 23.0431 1.08473 22.8535 0.738688 22.5161C0.392647 22.1786 0.198242 21.7208 0.198242 21.2436V14.7651C0.198242 14.2879 0.392647 13.8301 0.738688 13.4927C1.08473 13.1552 1.55406 12.9656 2.04344 12.9656H5.73383V9.90631C5.86317 7.16441 7.10042 4.584 9.17507 2.72927C11.2497 0.874537 13.993 -0.103606 16.805 0.00870508H22.3406C22.83 0.00870508 23.2993 0.198301 23.6453 0.535785C23.9914 0.873269 24.1858 1.331 24.1858 1.80827V8.2867C24.1858 8.76398 23.9914 9.2217 23.6453 9.55919C23.2993 9.89667 22.83 10.0863 22.3406 10.0863H16.805V12.9656H22.3406C22.6255 12.9635 22.907 13.0257 23.1631 13.1475C23.4192 13.2693 23.643 13.4472 23.8167 13.6674C23.9886 13.8909 24.1048 14.1504 24.156 14.4252C24.2073 14.7001 24.1922 14.9828 24.112 15.251L22.2668 21.7295C22.1552 22.1187 21.9124 22.46 21.5777 22.6983C21.243 22.9366 20.8357 23.0581 20.4216 23.0431H16.805V34.2004C16.805 34.6777 16.6106 35.1354 16.2646 35.4729C15.9185 35.8104 15.4492 36 14.9598 36ZM9.42422 32.4009H13.1146V21.2436C13.1146 20.7663 13.309 20.3086 13.6551 19.9711C14.0011 19.6336 14.4704 19.444 14.9598 19.444H19.093L19.9049 16.5647H14.9598C14.4704 16.5647 14.0011 16.3751 13.6551 16.0376C13.309 15.7001 13.1146 15.2424 13.1146 14.7651V9.90631C13.162 8.98329 13.5716 8.11342 14.2586 7.4769C14.9457 6.84037 15.8574 6.48598 16.805 6.48714H20.4954V3.60783H16.805C14.9724 3.49894 13.1696 4.09917 11.7879 5.27831C10.4061 6.45744 9.55683 8.12037 9.42422 9.90631V14.7651C9.42422 15.2424 9.22982 15.7001 8.88378 16.0376C8.53773 16.3751 8.0684 16.5647 7.57903 16.5647H3.88863V19.444H7.57903C8.0684 19.444 8.53773 19.6336 8.88378 19.9711C9.22982 20.3086 9.42422 20.7663 9.42422 21.2436V32.4009Z" fill="#101010"/>
</svg>
