<svg width="37" height="36" viewBox="0 0 37 36" fill="none" xmlns="http://www.w3.org/2000/svg">
<path d="M18.1611 8.76426C13.0529 8.76426 8.93034 12.889 8.93034 18C8.93034 23.111 13.0529 27.2357 18.1611 27.2357C23.2693 27.2357 27.3919 23.111 27.3919 18C27.3919 12.889 23.2693 8.76426 18.1611 8.76426ZM18.1611 24.0026C14.8577 24.0026 12.1618 21.3052 12.1618 18C12.1618 14.6948 14.8577 11.9974 18.1611 11.9974C21.4646 11.9974 24.1604 14.6948 24.1604 18C24.1604 21.3052 21.4646 24.0026 18.1611 24.0026ZM27.77 6.23355C26.5773 6.23355 25.6142 7.1972 25.6142 8.39051C25.6142 9.58381 26.5773 10.5475 27.77 10.5475C28.9626 10.5475 29.9257 9.58832 29.9257 8.39051C29.9261 8.10715 29.8706 7.82651 29.7624 7.56466C29.6542 7.3028 29.4954 7.06488 29.2951 6.86452C29.0949 6.66415 28.8571 6.50529 28.5954 6.39701C28.3336 6.28874 28.0532 6.23319 27.77 6.23355ZM36.1546 18C36.1546 15.5143 36.1771 13.0512 36.0376 10.57C35.8981 7.68803 35.241 5.1303 33.1347 3.02288C31.0239 0.910954 28.472 0.258013 25.5916 0.118418C23.1073 -0.0211759 20.6455 0.0013394 18.1656 0.0013394C15.6813 0.0013394 13.2194 -0.0211759 10.7396 0.118418C7.85919 0.258013 5.30284 0.915457 3.19655 3.02288C1.08576 5.13481 0.433167 7.68803 0.293648 10.57C0.154128 13.0557 0.176632 15.5188 0.176632 18C0.176632 20.4812 0.154128 22.9488 0.293648 25.43C0.433167 28.312 1.09026 30.8697 3.19655 32.9771C5.30734 35.089 7.85919 35.742 10.7396 35.8816C13.2239 36.0212 15.6858 35.9987 18.1656 35.9987C20.65 35.9987 23.1118 36.0212 25.5916 35.8816C28.472 35.742 31.0284 35.0845 33.1347 32.9771C35.2455 30.8652 35.8981 28.312 36.0376 25.43C36.1816 22.9488 36.1546 20.4857 36.1546 18ZM32.1941 28.6182C31.8655 29.4377 31.4695 30.0501 30.8349 30.6806C30.2003 31.3155 29.5927 31.7118 28.7736 32.0405C26.4063 32.9816 20.785 32.77 18.1611 32.77C15.5373 32.77 9.91148 32.9816 7.54415 32.045C6.72504 31.7163 6.11295 31.32 5.48287 30.6851C4.84828 30.0501 4.45222 29.4422 4.12368 28.6227C3.18755 26.2496 3.39908 20.6253 3.39908 18C3.39908 15.3747 3.18755 9.74592 4.12368 7.37732C4.45222 6.55777 4.84828 5.94536 5.48287 5.31493C6.11745 4.6845 6.72504 4.28373 7.54415 3.95501C9.91148 3.01838 15.5373 3.23002 18.1611 3.23002C20.785 3.23002 26.4108 3.01838 28.7781 3.95501C29.5972 4.28373 30.2093 4.68 30.8394 5.31493C31.474 5.94986 31.87 6.55777 32.1986 7.37732C33.1347 9.74592 32.9232 15.3747 32.9232 18C32.9232 20.6253 33.1347 26.2496 32.1941 28.6182Z" fill="#101010"/>
</svg>
