<svg width="26" height="30" viewBox="0 0 26 30" fill="none" xmlns="http://www.w3.org/2000/svg">
<path fill-rule="evenodd" clip-rule="evenodd" d="M12.5713 14.2857C15.9639 14.2857 18.7142 11.5355 18.7142 8.14286C18.7142 4.75025 15.9639 2 12.5713 2C9.17872 2 6.42847 4.75025 6.42847 8.14286C6.42847 11.5355 9.17872 14.2857 12.5713 14.2857ZM12.5713 16.2857C17.0685 16.2857 20.7142 12.64 20.7142 8.14286C20.7142 3.64568 17.0685 0 12.5713 0C8.07415 0 4.42847 3.64568 4.42847 8.14286C4.42847 12.64 8.07415 16.2857 12.5713 16.2857Z" fill="#101010"/>
<path fill-rule="evenodd" clip-rule="evenodd" d="M4.52901 22.5261C2.7479 24.5051 2 26.8438 2 28.2857C2 28.838 1.55228 29.2857 1 29.2857C0.447715 29.2857 0 28.838 0 28.2857C0 26.299 0.966383 23.4949 3.04242 21.1882C5.1518 18.8444 8.41786 17 13 17C17.5821 17 20.8482 18.8444 22.9576 21.1882C25.0336 23.4949 26 26.299 26 28.2857C26 28.838 25.5523 29.2857 25 29.2857C24.4477 29.2857 24 28.838 24 28.2857C24 26.8438 23.2521 24.5051 21.471 22.5261C19.7232 20.5841 16.9893 19 13 19C9.01072 19 6.27677 20.5841 4.52901 22.5261Z" fill="#101010"/>
</svg>
