<svg width="26" height="33" viewBox="0 0 26 33" fill="none" xmlns="http://www.w3.org/2000/svg">
<path fill-rule="evenodd" clip-rule="evenodd" d="M13 2C9.7452 2 7.12926 4.50858 7.00466 7.60123L7 7.71684V12.7551C7 13.3074 6.55228 13.7551 6 13.7551C5.44772 13.7551 5 13.3074 5 12.7551V6.56097H5.10501C5.72782 2.82357 9.0427 0 13 0C16.9573 0 20.2722 2.82357 20.895 6.56097H21V12.7551C21 13.3074 20.5523 13.7551 20 13.7551C19.4477 13.7551 19 13.3074 19 12.7551V7.71683L18.9953 7.60123C18.8707 4.50858 16.2548 2 13 2Z" fill="#101010"/>
<path fill-rule="evenodd" clip-rule="evenodd" d="M21.553 12.1431H4.44684L2.24684 31.0002L23.753 31.0002L21.553 12.1431ZM4.44684 10.1431C3.43193 10.1431 2.57792 10.9032 2.46031 11.9113L0.260315 30.7684C0.121674 31.9567 1.05043 33.0002 2.24684 33.0002H23.753C24.9495 33.0002 25.8782 31.9568 25.7396 30.7684L23.5396 11.9113C23.422 10.9032 22.568 10.1431 21.553 10.1431H4.44684Z" fill="#101010"/>
</svg>
