<svg width="294" height="249" viewBox="0 0 294 249" fill="none" xmlns="http://www.w3.org/2000/svg">
<ellipse cx="189" cy="74.5" rx="90" ry="74.5" fill="#539C5B"/>
<ellipse cx="89.5" cy="123.5" rx="89.5" ry="74.5" fill="#FFCC33"/>
<ellipse cx="204.5" cy="174.5" rx="89.5" ry="74.5" fill="#FFAF96"/>
<path d="M217 124C217 145.759 193.827 165 163 165C132.173 165 109 145.759 109 124C109 102.241 132.173 83 163 83C193.827 83 217 102.241 217 124Z" stroke="white" stroke-width="8"/>
<path d="M206.875 150.432L208.716 164.166L195.902 158.893L206.875 150.432Z" stroke="white" stroke-width="4"/>
<path d="M141 115L143.021 121.219H149.56L144.269 125.062L146.29 131.281L141 127.438L135.71 131.281L137.731 125.062L132.44 121.219H138.979L141 115Z" fill="white"/>
<path d="M163 115L165.021 121.219H171.56L166.269 125.062L168.29 131.281L163 127.438L157.71 131.281L159.731 125.062L154.44 121.219H160.979L163 115Z" fill="white"/>
<path d="M185 115L187.021 121.219H193.56L188.269 125.062L190.29 131.281L185 127.438L179.71 131.281L181.731 125.062L176.44 121.219H182.979L185 115Z" fill="white"/>
</svg>
