<svg width="294" height="249" viewBox="0 0 294 249" fill="none" xmlns="http://www.w3.org/2000/svg">
<ellipse cx="105" cy="174.5" rx="90" ry="74.5" transform="rotate(-180 105 174.5)" fill="#539C5B"/>
<ellipse cx="204.5" cy="125.5" rx="89.5" ry="74.5" transform="rotate(-180 204.5 125.5)" fill="#FFCC33"/>
<ellipse cx="89.5" cy="74.5" rx="89.5" ry="74.5" transform="rotate(-180 89.5 74.5)" fill="#FFAF96"/>
<path fill-rule="evenodd" clip-rule="evenodd" d="M109.264 79.5H171.736L192.326 108.75L140.5 177.832L88.6736 108.75L109.264 79.5ZM110.645 89.6995L99.744 105.185H118.774L110.645 89.6995ZM121.836 112.185L132.86 155.984L100.001 112.185H121.836ZM148.079 156.065L180.999 112.185H159.017L148.079 156.065ZM151.803 112.185H129.054L140.484 157.595L151.803 112.185ZM162.103 105.185H181.256L170.338 89.675L162.103 105.185ZM164.098 86.5H146.758L156.061 101.638L164.098 86.5ZM150.024 105.185L140.486 89.662L130.855 105.185H150.024ZM124.818 101.637L134.209 86.5H116.871L124.818 101.637Z" fill="white"/>
</svg>
