<svg width="294" height="249" viewBox="0 0 294 249" fill="none" xmlns="http://www.w3.org/2000/svg">
<ellipse rx="90" ry="74.5" transform="matrix(-1 0 0 1 105 74.5)" fill="#539C5B"/>
<ellipse rx="89.5" ry="74.5" transform="matrix(-1 0 0 1 204.5 123.5)" fill="#FFCC33"/>
<ellipse rx="89.5" ry="74.5" transform="matrix(-1 0 0 1 89.5 174.5)" fill="#FFAF96"/>
<circle cx="144" cy="76" r="6.5" stroke="white" stroke-width="5"/>
<path d="M159 165C159 173.284 152.284 180 144 180C135.716 180 129 173.284 129 165" stroke="white" stroke-width="8"/>
<path d="M109.865 114.874C109.865 90.3563 134.596 84 143.756 84C170.136 84 177.341 104.582 177.647 114.874V133.943C176.914 141.207 179.173 144.234 180.394 144.839L185.89 151.195C194.683 159.186 190.165 162.395 186.806 163H105.286C97.958 163 96.7367 159.973 97.042 158.46C97.6527 156.341 99.9731 151.377 104.37 148.471C108.766 145.566 109.865 141.812 109.865 140.299V114.874Z" stroke="white" stroke-width="8"/>
</svg>
