<svg width="15" height="11" viewBox="0 0 15 11" fill="none" xmlns="http://www.w3.org/2000/svg">
<path d="M14.0105 5.09621C14.1149 5.20064 14.1635 5.33977 14.1561 5.47649C14.1602 5.56123 14.1428 5.64677 14.1039 5.72432C14.0804 5.77098 14.0492 5.81474 14.0103 5.85368L9.06055 10.8034C8.86523 10.9987 8.54871 10.9987 8.35339 10.8034C8.1582 10.6082 8.1582 10.2916 8.35339 10.0963L12.6567 5.79301H0.5C0.223877 5.79301 0 5.56917 0 5.29301C0 5.01686 0.223877 4.79301 0.5 4.79301H12.293L8.35364 0.853561C8.15833 0.65831 8.15833 0.341721 8.35364 0.146439C8.54883 -0.0488129 8.86548 -0.0488129 9.06067 0.146439L14.0105 5.09621Z" fill="#101010"/>
</svg>
