<svg width="244" height="231" viewBox="0 0 244 231" fill="none" xmlns="http://www.w3.org/2000/svg">
    <link xmlns="http://www.w3.org/1999/xhtml" rel="stylesheet" href="../../css/svg.css" type="text/css"/>
    <a href="#">
        <ellipse cx="171" cy="9.5" rx="11" ry="9.5" fill="#FFCC33" class="ycircle"/>
        <circle cx="232" cy="56" r="12" fill="#539C5B" class="gcircle"/>
        <ellipse cx="218" cy="19.5" rx="14" ry="11.5" fill="#FF843E" class="ocircle"/>
        <ellipse cx="42.0001" cy="198" rx="6" ry="8" transform="rotate(-57.4368 42.0001 198)" fill="#366EFF" class="bcircle"/>
        <ellipse cx="65.5" cy="219" rx="13.5" ry="12" fill="#FFAF96" class="pcircle"/>
        <ellipse cx="115.338" cy="116.785" rx="95.2953" ry="76.2697" transform="rotate(160.429 115.338 116.785)" fill="#FFCC33"/>
        <path d="M71.9243 117.176C71.9243 118.456 71.6843 119.528 71.2043 120.392C70.7243 121.256 70.0309 121.907 69.1243 122.344C68.2283 122.781 67.1456 123 65.8763 123H62.6763V111.576H66.2123C67.3749 111.576 68.3829 111.789 69.2362 112.216C70.0896 112.643 70.7509 113.272 71.2203 114.104C71.6896 114.925 71.9243 115.949 71.9243 117.176ZM70.1163 117.224C70.1163 116.264 69.9616 115.475 69.6523 114.856C69.3429 114.237 68.8843 113.779 68.2763 113.48C67.6789 113.181 66.9536 113.032 66.1003 113.032H64.4043V121.544H65.7963C67.2363 121.544 68.3136 121.181 69.0283 120.456C69.7536 119.731 70.1163 118.653 70.1163 117.224ZM75.9146 114.376V123H74.2186V114.376H75.9146ZM75.0826 111.096C75.3386 111.096 75.5626 111.171 75.7546 111.32C75.9466 111.469 76.0426 111.72 76.0426 112.072C76.0426 112.413 75.9466 112.664 75.7546 112.824C75.5626 112.973 75.3386 113.048 75.0826 113.048C74.8053 113.048 74.5706 112.973 74.3786 112.824C74.1973 112.664 74.1066 112.413 74.1066 112.072C74.1066 111.72 74.1973 111.469 74.3786 111.32C74.5706 111.171 74.8053 111.096 75.0826 111.096ZM84.306 120.568C84.306 121.133 84.1673 121.608 83.89 121.992C83.6127 122.376 83.2127 122.669 82.69 122.872C82.1673 123.064 81.538 123.16 80.802 123.16C80.194 123.16 79.6713 123.112 79.234 123.016C78.8073 122.931 78.4127 122.803 78.05 122.632V121.144C78.434 121.325 78.8767 121.491 79.378 121.64C79.8793 121.779 80.37 121.848 80.85 121.848C81.49 121.848 81.9487 121.747 82.226 121.544C82.514 121.341 82.658 121.069 82.658 120.728C82.658 120.536 82.6047 120.365 82.498 120.216C82.3913 120.056 82.1887 119.896 81.89 119.736C81.602 119.565 81.1753 119.373 80.61 119.16C80.066 118.936 79.602 118.717 79.218 118.504C78.834 118.28 78.5407 118.019 78.338 117.72C78.1353 117.411 78.034 117.016 78.034 116.536C78.034 115.789 78.3327 115.219 78.93 114.824C79.538 114.419 80.338 114.216 81.33 114.216C81.8527 114.216 82.3433 114.269 82.802 114.376C83.2713 114.472 83.7247 114.621 84.162 114.824L83.602 116.12C83.3567 116.003 83.1007 115.907 82.834 115.832C82.578 115.747 82.3167 115.677 82.05 115.624C81.794 115.571 81.5273 115.544 81.25 115.544C80.738 115.544 80.3487 115.624 80.082 115.784C79.8153 115.944 79.682 116.168 79.682 116.456C79.682 116.659 79.7407 116.835 79.858 116.984C79.986 117.133 80.2047 117.283 80.514 117.432C80.8233 117.581 81.2447 117.763 81.778 117.976C82.3113 118.179 82.7647 118.387 83.138 118.6C83.522 118.813 83.81 119.075 84.002 119.384C84.2047 119.693 84.306 120.088 84.306 120.568ZM89.8 123.16C89.0107 123.16 88.3173 123.005 87.72 122.696C87.1227 122.387 86.6587 121.907 86.328 121.256C85.9973 120.595 85.832 119.757 85.832 118.744C85.832 117.677 86.008 116.813 86.36 116.152C86.7227 115.491 87.208 115.005 87.816 114.696C88.4347 114.376 89.1387 114.216 89.928 114.216C90.408 114.216 90.856 114.269 91.272 114.376C91.6987 114.472 92.0507 114.584 92.328 114.712L91.816 116.088C91.5173 115.971 91.1973 115.869 90.856 115.784C90.5253 115.699 90.2107 115.656 89.912 115.656C89.3787 115.656 88.936 115.773 88.584 116.008C88.2427 116.232 87.9867 116.573 87.816 117.032C87.656 117.48 87.576 118.045 87.576 118.728C87.576 119.379 87.6613 119.928 87.832 120.376C88.0027 120.824 88.2533 121.165 88.584 121.4C88.9253 121.624 89.3467 121.736 89.848 121.736C90.328 121.736 90.7493 121.683 91.112 121.576C91.4747 121.469 91.816 121.331 92.136 121.16V122.632C91.8267 122.813 91.4907 122.947 91.128 123.032C90.7653 123.117 90.3227 123.16 89.8 123.16ZM101.772 118.68C101.772 119.395 101.676 120.029 101.484 120.584C101.292 121.139 101.02 121.608 100.668 121.992C100.316 122.376 99.8891 122.669 99.3878 122.872C98.8864 123.064 98.3211 123.16 97.6918 123.16C97.1158 123.16 96.5824 123.064 96.0918 122.872C95.6011 122.669 95.1744 122.376 94.8118 121.992C94.4598 121.608 94.1824 121.139 93.9798 120.584C93.7771 120.029 93.6758 119.389 93.6758 118.664C93.6758 117.715 93.8358 116.909 94.1558 116.248C94.4864 115.587 94.9558 115.085 95.5638 114.744C96.1824 114.392 96.9078 114.216 97.7398 114.216C98.5291 114.216 99.2224 114.392 99.8198 114.744C100.428 115.085 100.902 115.587 101.244 116.248C101.596 116.909 101.772 117.72 101.772 118.68ZM95.4198 118.68C95.4198 119.32 95.4998 119.875 95.6598 120.344C95.8198 120.803 96.0704 121.155 96.4118 121.4C96.7531 121.645 97.1904 121.768 97.7238 121.768C98.2571 121.768 98.6944 121.645 99.0358 121.4C99.3771 121.155 99.6278 120.803 99.7878 120.344C99.9478 119.875 100.028 119.32 100.028 118.68C100.028 118.019 99.9424 117.464 99.7718 117.016C99.6118 116.568 99.3611 116.227 99.0198 115.992C98.6891 115.747 98.2518 115.624 97.7078 115.624C96.9078 115.624 96.3264 115.891 95.9638 116.424C95.6011 116.957 95.4198 117.709 95.4198 118.68ZM105.545 123L102.281 114.376H104.073L105.865 119.416C105.94 119.629 106.015 119.869 106.089 120.136C106.175 120.403 106.249 120.659 106.313 120.904C106.377 121.149 106.42 121.363 106.441 121.544H106.505C106.537 121.363 106.585 121.149 106.649 120.904C106.724 120.648 106.804 120.392 106.889 120.136C106.975 119.869 107.049 119.629 107.113 119.416L108.905 114.376H110.697L107.417 123H105.545ZM115.423 114.216C116.18 114.216 116.831 114.376 117.375 114.696C117.919 115.005 118.335 115.453 118.623 116.04C118.922 116.627 119.071 117.32 119.071 118.12V119.048H113.279C113.3 119.933 113.53 120.611 113.967 121.08C114.415 121.549 115.039 121.784 115.839 121.784C116.394 121.784 116.884 121.736 117.311 121.64C117.748 121.533 118.196 121.379 118.655 121.176V122.584C118.228 122.776 117.791 122.92 117.343 123.016C116.906 123.112 116.383 123.16 115.775 123.16C114.943 123.16 114.207 122.995 113.567 122.664C112.927 122.333 112.426 121.843 112.063 121.192C111.711 120.531 111.535 119.72 111.535 118.76C111.535 117.789 111.695 116.968 112.015 116.296C112.346 115.624 112.799 115.112 113.375 114.76C113.962 114.397 114.644 114.216 115.423 114.216ZM115.423 115.528C114.815 115.528 114.324 115.725 113.951 116.12C113.588 116.515 113.375 117.075 113.311 117.8H117.375C117.375 117.352 117.306 116.957 117.167 116.616C117.028 116.275 116.815 116.008 116.527 115.816C116.239 115.624 115.871 115.528 115.423 115.528ZM125.443 114.216C125.593 114.216 125.758 114.227 125.939 114.248C126.121 114.259 126.27 114.275 126.387 114.296L126.211 115.88C126.094 115.848 125.955 115.821 125.795 115.8C125.635 115.779 125.486 115.768 125.347 115.768C125.027 115.768 124.718 115.832 124.419 115.96C124.131 116.077 123.87 116.253 123.635 116.488C123.401 116.712 123.214 116.989 123.075 117.32C122.947 117.651 122.883 118.029 122.883 118.456V123H121.187V114.376H122.531L122.755 115.912H122.819C123.001 115.603 123.219 115.32 123.475 115.064C123.731 114.808 124.025 114.605 124.355 114.456C124.686 114.296 125.049 114.216 125.443 114.216ZM141.805 114.216C142.775 114.216 143.506 114.467 143.997 114.968C144.487 115.469 144.733 116.275 144.733 117.384V123H143.037V117.608C143.037 116.947 142.903 116.451 142.637 116.12C142.381 115.779 141.975 115.608 141.421 115.608C140.653 115.608 140.103 115.848 139.773 116.328C139.442 116.797 139.277 117.48 139.277 118.376V123H137.597V117.608C137.597 117.171 137.533 116.803 137.405 116.504C137.287 116.205 137.111 115.981 136.877 115.832C136.642 115.683 136.338 115.608 135.965 115.608C135.431 115.608 135.01 115.725 134.701 115.96C134.391 116.195 134.167 116.541 134.029 117C133.901 117.448 133.837 117.997 133.837 118.648V123H132.141V114.376H133.485L133.725 115.528H133.821C134.002 115.229 134.221 114.984 134.477 114.792C134.743 114.6 135.037 114.456 135.357 114.36C135.677 114.264 136.007 114.216 136.349 114.216C136.999 114.216 137.549 114.333 137.997 114.568C138.445 114.792 138.77 115.139 138.973 115.608H139.101C139.378 115.128 139.762 114.776 140.253 114.552C140.743 114.328 141.261 114.216 141.805 114.216ZM154.928 118.68C154.928 119.395 154.832 120.029 154.64 120.584C154.448 121.139 154.176 121.608 153.824 121.992C153.472 122.376 153.045 122.669 152.544 122.872C152.043 123.064 151.477 123.16 150.848 123.16C150.272 123.16 149.739 123.064 149.248 122.872C148.757 122.669 148.331 122.376 147.968 121.992C147.616 121.608 147.339 121.139 147.136 120.584C146.933 120.029 146.832 119.389 146.832 118.664C146.832 117.715 146.992 116.909 147.312 116.248C147.643 115.587 148.112 115.085 148.72 114.744C149.339 114.392 150.064 114.216 150.896 114.216C151.685 114.216 152.379 114.392 152.976 114.744C153.584 115.085 154.059 115.587 154.4 116.248C154.752 116.909 154.928 117.72 154.928 118.68ZM148.576 118.68C148.576 119.32 148.656 119.875 148.816 120.344C148.976 120.803 149.227 121.155 149.568 121.4C149.909 121.645 150.347 121.768 150.88 121.768C151.413 121.768 151.851 121.645 152.192 121.4C152.533 121.155 152.784 120.803 152.944 120.344C153.104 119.875 153.184 119.32 153.184 118.68C153.184 118.019 153.099 117.464 152.928 117.016C152.768 116.568 152.517 116.227 152.176 115.992C151.845 115.747 151.408 115.624 150.864 115.624C150.064 115.624 149.483 115.891 149.12 116.424C148.757 116.957 148.576 117.709 148.576 118.68ZM161.334 114.216C161.483 114.216 161.649 114.227 161.83 114.248C162.011 114.259 162.161 114.275 162.278 114.296L162.102 115.88C161.985 115.848 161.846 115.821 161.686 115.8C161.526 115.779 161.377 115.768 161.238 115.768C160.918 115.768 160.609 115.832 160.31 115.96C160.022 116.077 159.761 116.253 159.526 116.488C159.291 116.712 159.105 116.989 158.966 117.32C158.838 117.651 158.774 118.029 158.774 118.456V123H157.078V114.376H158.422L158.646 115.912H158.71C158.891 115.603 159.11 115.32 159.366 115.064C159.622 114.808 159.915 114.605 160.246 114.456C160.577 114.296 160.939 114.216 161.334 114.216ZM166.954 114.216C167.712 114.216 168.362 114.376 168.906 114.696C169.45 115.005 169.866 115.453 170.154 116.04C170.453 116.627 170.602 117.32 170.602 118.12V119.048H164.81C164.832 119.933 165.061 120.611 165.498 121.08C165.946 121.549 166.57 121.784 167.37 121.784C167.925 121.784 168.416 121.736 168.842 121.64C169.28 121.533 169.728 121.379 170.186 121.176V122.584C169.76 122.776 169.322 122.92 168.874 123.016C168.437 123.112 167.914 123.16 167.306 123.16C166.474 123.16 165.738 122.995 165.098 122.664C164.458 122.333 163.957 121.843 163.594 121.192C163.242 120.531 163.066 119.72 163.066 118.76C163.066 117.789 163.226 116.968 163.546 116.296C163.877 115.624 164.33 115.112 164.906 114.76C165.493 114.397 166.176 114.216 166.954 114.216ZM166.954 115.528C166.346 115.528 165.856 115.725 165.482 116.12C165.12 116.515 164.906 117.075 164.842 117.8H168.906C168.906 117.352 168.837 116.957 168.698 116.616C168.56 116.275 168.346 116.008 168.058 115.816C167.77 115.624 167.402 115.528 166.954 115.528Z" fill="#101010"/>
    </a>
</svg>
